<?xml version="1.0" encoding="UTF-8" standalone="no"?>
<svg width="22px" height="22px" viewBox="0 0 22 22" version="1.1" xmlns="http://www.w3.org/2000/svg" xmlns:xlink="http://www.w3.org/1999/xlink">
    <!-- Generator: Sketch 39.1 (31720) - http://www.bohemiancoding.com/sketch -->
    <title>collapse</title>
    <desc>Created with Sketch.</desc>
    <defs></defs>
    <g id="Page-1" stroke="none" stroke-width="1" fill="none" fill-rule="evenodd">
        <g id="collapse" fill="#FFFFFF">
            <g id="f311" transform="translate(10.646447, 11.853553) rotate(-315.000000) translate(-10.646447, -11.853553) translate(4.646447, 1.853553)">
                <path d="M0.704840952,18.6774974 C0.315568043,18.2882242 0.316904236,17.6557518 0.704104962,17.2685512 L5.03808304,12.9345738 C5.42694947,12.5457075 6.05909218,12.5473732 6.44629284,12.9345738 L10.7802702,17.2685512 C11.1691365,17.6574175 11.161965,18.295066 10.7795336,18.6774974 L10.4314034,19.0256276 C10.0421302,19.4149008 9.41391485,19.4178218 9.01423578,19.0181426 L6.45451422,16.4584204 C6.06110731,16.0650134 5.4295407,16.0587412 5.02986142,16.4584204 L2.47013858,19.0181426 C2.07673147,19.4115496 1.43540219,19.408059 1.05297105,19.0256276 L0.704840952,18.6774974 Z M10.7795336,0.744377647 C11.1688068,1.13365078 11.1674708,1.76612318 10.7802702,2.15332384 L6.44629284,6.48730116 C6.05742647,6.87616753 5.42528376,6.87450182 5.03808304,6.48730116 L0.704104962,2.15332384 C0.315238529,1.76445747 0.322409814,1.126809 0.704840952,0.744377647 L1.05297105,0.396247353 C1.44224396,0.00697422282 2.0704593,0.00405322347 2.47013858,0.403732402 L5.02986142,2.9634546 C5.42326853,3.35686161 6.05483515,3.36313378 6.45451422,2.9634546 L9.01423578,0.403732402 C9.40764269,0.0103253932 10.048972,0.0138159972 10.4314034,0.396247353 L10.7795336,0.744377647 Z" id="Shape"></path>
            </g>
        </g>
    </g>
</svg>