<?xml version="1.0" encoding="utf-8"?>
<!-- Generator: Adobe Illustrator 21.0.2, SVG Export Plug-In . SVG Version: 6.00 Build 0)  -->
<svg version="1.1" id="ball_1_" xmlns="http://www.w3.org/2000/svg" xmlns:xlink="http://www.w3.org/1999/xlink" x="0px" y="0px"
	 viewBox="0 0 150 150" style="enable-background:new 0 0 150 150;" xml:space="preserve">
<style type="text/css">
	.st0{fill-rule:evenodd;clip-rule:evenodd;}
</style>
<g id="ball">
	<g>
		<path class="st0" d="M75,0C33.7,0,0,33.6,0,74.9c0,41.3,33.6,75,75,75c41.3,0,75-33.6,75-75C150,33.6,116.4,0,75,0z M124.6,34.5
			c8.9,10.9,14.3,24.8,14.5,39.9c-2.1-0.4-23.3-4.7-44.6-2.1c-0.4-1.1-0.9-2.2-1.4-3.3c-1.3-3.1-2.8-6.2-4.2-9.3
			C112.5,50.1,123.2,36.4,124.6,34.5z M75,11c16.3,0,31.1,6.1,42.5,16.1c-1.2,1.6-10.8,14.6-33.6,23.1C73.4,31,61.8,15.1,60,12.8
			C64.8,11.6,69.9,11,75,11z M47.8,17.1c1.7,2.3,13.1,18.2,23.7,37c-30,8-56.3,7.8-59.2,7.8C16.5,42,29.9,25.5,47.8,17.1z M11,75
			c0-0.7,0-1.3,0-2c2.8,0.1,33.8,0.5,65.8-9.1c1.8,3.6,3.6,7.2,5.2,10.9c-0.8,0.2-1.7,0.5-2.5,0.8c-33,10.7-50.6,39.8-52.1,42.3
			C17.2,106.5,11,91.5,11,75z M75,139.1c-14.8,0-28.5-5.1-39.3-13.5c1.2-2.4,14.1-27.4,50.2-40c0.1,0,0.3-0.1,0.4-0.1
			c9,23.4,12.7,42.9,13.7,48.6C92.3,137.3,83.9,139.1,75,139.1z M110.8,128.1c-0.7-3.9-4.1-22.6-12.4-45.7c20.1-3.2,37.7,2,39.9,2.7
			C135.4,103,125.2,118.4,110.8,128.1z"/>
	</g>
</g>
</svg>
