<?xml version="1.0" encoding="utf-8"?>
<!-- Generator: Adobe Illustrator 19.2.1, SVG Export Plug-In . SVG Version: 6.00 Build 0)  -->
<!DOCTYPE svg PUBLIC "-//W3C//DTD SVG 1.1//EN" "http://www.w3.org/Graphics/SVG/1.1/DTD/svg11.dtd">
<svg version="1.1" id="Layer_1" xmlns="http://www.w3.org/2000/svg" xmlns:xlink="http://www.w3.org/1999/xlink" x="0px" y="0px"
	 viewBox="0 0 30 19" enable-background="new 0 0 30 19" xml:space="preserve">
<g>
	<g>
		<path fill="#FFFFFF" d="M3.1,18.1c-1.1,0-2-0.9-2-2V2.9c0-1.1,0.9-2,2-2h23.7c1.1,0,2,0.9,2,2v13.3c0,1.1-0.9,2-2,2H3.1z"/>
		<path fill="#454545" d="M26.9,1.9c0.6,0,1,0.4,1,1v13.3c0,0.6-0.4,1-1,1H3.1c-0.6,0-1-0.4-1-1V2.9c0-0.6,0.4-1,1-1H26.9 M26.9-0.1
			H3.1c-1.7,0-3,1.3-3,3v13.3c0,1.7,1.3,3,3,3h23.7c1.7,0,3-1.3,3-3V2.9C29.9,1.2,28.5-0.1,26.9-0.1L26.9-0.1z"/>
	</g>
	<path fill="#FFFFFF" stroke="#454545" stroke-width="1.7403" stroke-miterlimit="10" d="M27.9,1.9l-11.6,10c-0.8,0.6-1.9,0.6-2.6,0
		L2.1,1.9"/>
	<line fill="#FFFFFF" stroke="#454545" stroke-width="1.7403" stroke-miterlimit="10" x1="19.2" y1="9.3" x2="27.9" y2="17.1"/>
	<line fill="#FFFFFF" stroke="#454545" stroke-width="1.7403" stroke-miterlimit="10" x1="10.4" y1="9" x2="1.8" y2="17.1"/>
</g>
</svg>
