<?xml version="1.0" encoding="UTF-8" standalone="no"?>
<svg width="22px" height="22px" viewBox="0 0 22 22" version="1.1" xmlns="http://www.w3.org/2000/svg" xmlns:xlink="http://www.w3.org/1999/xlink">
    <!-- Generator: Sketch 39.1 (31720) - http://www.bohemiancoding.com/sketch -->
    <title>expand</title>
    <desc>Created with Sketch.</desc>
    <defs></defs>
    <g id="Page-1" stroke="none" stroke-width="1" fill="none" fill-rule="evenodd">
        <g id="expand" fill="#FFFFFF">
            <g id="f312" transform="translate(11.000000, 11.500000) rotate(-315.000000) translate(-11.000000, -11.500000) translate(5.000000, 0.000000)">
                <path d="M6.45451422,4.2279514 C6.06110731,3.83454439 5.4295407,3.82827222 5.02986142,4.2279514 L2.47013858,6.7876736 C2.07673147,7.18108061 1.43540219,7.17759019 1.05297105,6.79515905 L0.704840952,6.44702895 C0.315568043,6.05775604 0.316904236,5.42528376 0.704104962,5.03808304 L5.03808304,0.704104962 C5.42694947,0.315238529 6.05909218,0.316904236 6.44629284,0.704104962 L10.7802702,5.03808304 C11.1691365,5.42694947 11.161965,6.06459781 10.7795336,6.44702895 L10.4314034,6.79515905 C10.0421302,7.18443196 9.41391485,7.18735278 9.01423578,6.7876736 L6.45451422,4.2279514 Z M5.02986142,18.2720486 C5.42326853,18.6654556 6.05483515,18.6717278 6.45451422,18.2720486 L9.01423578,15.7123264 C9.40764269,15.3189194 10.048972,15.3224098 10.4314034,15.704841 L10.7795336,16.052971 C11.1688068,16.442244 11.1674708,17.0747162 10.7802702,17.461917 L6.44629284,21.795895 C6.05742647,22.1847615 5.42528376,22.1830958 5.03808304,21.795895 L0.704104962,17.461917 C0.315238529,17.0730505 0.322409814,16.4354022 0.704840952,16.052971 L1.05297105,15.704841 C1.44224396,15.315568 2.0704593,15.3126472 2.47013858,15.7123264 L5.02986142,18.2720486 Z" id="Shape"></path>
            </g>
        </g>
    </g>
</svg>