<?xml version="1.0" encoding="UTF-8" standalone="no"?>
<svg width="100px" height="100px" viewBox="0 0 100 100" version="1.1" xmlns="http://www.w3.org/2000/svg" xmlns:xlink="http://www.w3.org/1999/xlink">
    <!-- Generator: Sketch 39.1 (31720) - http://www.bohemiancoding.com/sketch -->
    <title>fb-like-icon</title>
    <desc>Created with Sketch.</desc>
    <defs>
        <path d="M28.99725,72.4285 L29.65825,72.729 C30.232,72.98925 30.77575,73.34575 31.36875,73.85075 C34.103,76.17625 37.83225,76.24775 37.924,76.249 L68.76275,76.23725 C71.571,76.0575 73.765,73.72575 73.765,70.909 C73.765,70.0485 73.563,69.223 73.165,68.456 L72.0185,66.25 L74.47025,65.84 C77.05625,65.4075 78.9335,63.1915 78.9335,60.57075 C78.9335,59.4075 78.56,58.29675 77.85225,57.3585 L76.30775,55.30875 L78.75875,54.5455 C81.002,53.8455 82.5105,51.79275 82.5105,49.437 C82.5105,47.51625 81.468,45.732 79.79025,44.7815 L77.40125,43.42725 L79.59,41.7685 C80.92975,40.7525 81.70475,39.21375 81.716,37.54675 C81.72575,36.20025 81.17325,34.898 80.162,33.8795 C79.07625,32.786 77.592,32.159 76.08975,32.159 L52.5645,32.159 L54.45,19.94025 C54.57725,19.10575 54.6425,18.25025 54.6425,17.39975 C54.6425,11.27075 50.62775,3.7845 45.942,3.7845 C45.075,3.7845 44.22475,4.01275 43.478,4.438 L44.33575,15.72525 C44.40775,16.671 44.33175,17.61025 44.11125,18.51725 C43.896,19.40775 43.54425,20.26125 43.06625,21.051 L32.212,41.1715 L28.99725,43.9205 L28.99725,72.4285 L28.99725,72.4285 Z M37.9195,79.864 L37.91875,79.864 C37.71225,79.864 32.81575,79.827 29.026,76.60375 C28.69625,76.32325 28.42225,76.13775 28.16325,76.02 L25.38225,74.75675 L25.38225,42.25525 L29.35075,38.86175 L39.957,19.207 C40.251,18.72675 40.46675,18.20775 40.59825,17.66475 C40.72975,17.124 40.77425,16.565 40.7315,15.99875 L39.72475,2.7595 L40.43975,2.16325 C41.98125,0.87725 43.93525,0.1695 45.942,0.1695 C52.87775,0.1695 58.2575,9.4315 58.2575,17.39975 C58.2575,18.432 58.179,19.47175 58.0235,20.48925 L56.78,28.544 L76.08975,28.544 C78.5485,28.544 80.96775,29.56025 82.7275,31.332 C84.422,33.039 85.347,35.255 85.331,37.5715 C85.317,39.58725 84.641,41.4895 83.42575,43.031 C85.12725,44.69725 86.1255,47.00125 86.1255,49.437 C86.1255,52.631 84.46975,55.49275 81.844,57.08975 C82.30825,58.18325 82.5485,59.35925 82.5485,60.57075 C82.5485,64.231 80.365,67.42025 77.13025,68.80275 C77.29625,69.48675 77.38,70.19075 77.38,70.909 C77.38,75.659 73.66275,79.586 68.91625,79.8495 L68.8175,79.85225 L37.9195,79.864 L37.9195,79.864 Z" id="path-1"></path>
        <mask id="mask-2" maskContentUnits="userSpaceOnUse" maskUnits="objectBoundingBox" x="-1" y="-1" width="62.74325" height="81.6945">
            <rect x="24.38225" y="-0.8305" width="62.74325" height="81.6945" fill="white"></rect>
            <use xlink:href="#path-1" fill="black"></use>
        </mask>
        <polygon id="path-3" points="27.99725 46.235 0 46.235 0 23.131 0 0.027 27.99725 0.027 27.99725 46.235"></polygon>
    </defs>
    <g id="Page-1" stroke="none" stroke-width="1" fill="none" fill-rule="evenodd">
        <g id="fb-like-icon">
            <g id="Group" transform="translate(6.000000, 9.000000)">
                <g id="ThumbFinal_4.9.15" transform="translate(0.500000, 0.000000)">
                    <g id="Fill-1">
                        <use fill="#FFFFFF" fill-rule="evenodd" xlink:href="#path-1"></use>
                        <use stroke="#FFFFFF" mask="url(#mask-2)" stroke-width="2" stroke-linecap="round" stroke-linejoin="round" xlink:href="#path-1"></use>
                    </g>
                    <g id="Group-5" transform="translate(0.000000, 36.000000)">
                        <mask id="mask-4" fill="white">
                            <use xlink:href="#path-3"></use>
                        </mask>
                        <g id="Clip-3"></g>
                        <path d="M3.71525,3.642 C3.6645,3.642 3.615,3.69175 3.615,3.7425 L3.615,42.535 C3.615,42.58575 3.6645,42.635 3.71525,42.635 L24.28175,42.635 C24.3325,42.635 24.38225,42.58575 24.38225,42.535 L24.38225,3.7425 C24.38225,3.69175 24.3325,3.642 24.28175,3.642 L3.71525,3.642 L3.71525,3.642 Z M24.28175,46.25 L3.71525,46.25 C1.66675,46.25 0,44.58325 0,42.535 L0,3.7425 C0,1.69375 1.66675,0.027 3.71525,0.027 L24.28175,0.027 C26.3305,0.027 27.99725,1.69375 27.99725,3.7425 L27.99725,42.535 C27.99725,44.58325 26.3305,46.25 24.28175,46.25 L24.28175,46.25 Z" id="Fill-4" stroke="#FFFFFF" stroke-linecap="round" stroke-linejoin="round" fill="#FFFFFF" mask="url(#mask-4)"></path>
                    </g>
                </g>
            </g>
        </g>
    </g>
</svg>