<?xml version="1.0" encoding="utf-8"?>
<!-- Generator: Adobe Illustrator 19.2.1, SVG Export Plug-In . SVG Version: 6.00 Build 0)  -->
<!DOCTYPE svg PUBLIC "-//W3C//DTD SVG 1.1//EN" "http://www.w3.org/Graphics/SVG/1.1/DTD/svg11.dtd">
<svg version="1.1" id="Layer_1" xmlns="http://www.w3.org/2000/svg" xmlns:xlink="http://www.w3.org/1999/xlink" x="0px" y="0px"
	 viewBox="0 0 24 24" enable-background="new 0 0 24 24" xml:space="preserve">
<path fill="#454545" d="M21.1,0H2.9C1.3,0,0,1.3,0,2.8v18.3C0,22.7,1.3,24,2.9,24h18.3c1.6,0,2.9-1.3,2.9-2.8V2.8
	C24,1.3,22.7,0,21.1,0z M18,3h2.2C20.7,3,21,3.3,21,3.7V6c0,0.4-0.3,0.7-0.7,0.7H18c-0.4,0-0.7-0.3-0.7-0.7V3.7
	C17.2,3.3,17.6,3,18,3z M12,7.4c2.5,0,4.6,2.1,4.6,4.6c0,2.5-2.1,4.6-4.6,4.6c-2.5,0-4.6-2.1-4.6-4.6C7.4,9.5,9.5,7.4,12,7.4z
	 M21,21.7H3c-0.4,0-0.7-0.3-0.7-0.7V9.7h3c-0.4,0.6-0.5,1.6-0.5,2.3c0,4,3.3,7.3,7.3,7.3c4,0,7.3-3.3,7.3-7.3c0-0.7-0.1-1.7-0.6-2.3
	h3V21C21.7,21.4,21.4,21.7,21,21.7z"/>
</svg>
