<?xml version="1.0" encoding="utf-8"?>
<!-- Generator: Adobe Illustrator 19.2.1, SVG Export Plug-In . SVG Version: 6.00 Build 0)  -->
<!DOCTYPE svg PUBLIC "-//W3C//DTD SVG 1.1//EN" "http://www.w3.org/Graphics/SVG/1.1/DTD/svg11.dtd">
<svg version="1.1" id="Layer_1" xmlns="http://www.w3.org/2000/svg" xmlns:xlink="http://www.w3.org/1999/xlink" x="0px" y="0px"
	 viewBox="0 0 1012.4 824.2" enable-background="new 0 0 1012.4 824.2" xml:space="preserve">
<g>
	<path d="M92.4,674.2h-20c-11,0-20-9-20-20V20c0-17.8,21.5-26.7,34.1-14.1L410.6,330c7.8,7.8,7.8,20.5,0,28.3l-14.1,14.1
		c-7.8,7.8-20.5,7.8-28.3,0L146.5,150.8c-12.6-12.6-34.1-3.7-34.1,14.1v489.3C112.4,665.2,103.4,674.2,92.4,674.2z"/>
	<path d="M682.4,824.2h-10c-11,0-20-9-20-20V363c0-11,9-20,20-20h20c11,0,20,9,20,20v374.4c0,13.2,12.5,22.7,25.2,19.3
		c45.9-12.2,91.3-39,129.8-77.5c54-54,85-121.4,85-185s-31-131-85-185c-47.9-47.9-106.3-77.6-163.3-83.8c-6-0.6-12,1.5-16.3,5.8
		L396.5,522.5c-7.8,7.8-20.5,7.8-28.3,0L204.1,358.3c-7.8-7.8-7.8-20.5,0-28.3l14.1-14.1c7.8-7.8,20.5-7.8,28.3,0l121.7,121.7
		c7.8,7.8,20.5,7.8,28.3,0L664.1,170c3.8-3.8,8.8-5.9,14.1-5.9h4.1c166.5,0,330,163.5,330,330S848.9,824.2,682.4,824.2z"/>
	
		<line fill="none" stroke="#000000" stroke-width="10" stroke-linecap="round" stroke-linejoin="round" stroke-miterlimit="10" x1="5" y1="635.7" x2="5" y2="32.6"/>
	
		<line fill="none" stroke="#000000" stroke-width="10" stroke-linecap="round" stroke-linejoin="round" stroke-miterlimit="10" x1="606.4" y1="787.2" x2="606.4" y2="373"/>
	
		<line fill="none" stroke="#000000" stroke-width="10" stroke-linecap="round" stroke-linejoin="round" stroke-miterlimit="10" x1="459" y1="305.7" x2="612.4" y2="152.4"/>
</g>
</svg>
