<?xml version="1.0" encoding="utf-8"?>
<!-- Generator: Adobe Illustrator 19.2.1, SVG Export Plug-In . SVG Version: 6.00 Build 0)  -->
<!DOCTYPE svg PUBLIC "-//W3C//DTD SVG 1.1//EN" "http://www.w3.org/Graphics/SVG/1.1/DTD/svg11.dtd">
<svg version="1.1" id="Layer_1" xmlns="http://www.w3.org/2000/svg" xmlns:xlink="http://www.w3.org/1999/xlink" x="0px" y="0px"
	 viewBox="0 0 1012.4 821.4" enable-background="new 0 0 1012.4 821.4" xml:space="preserve">
<g>
	<path d="M90.4,671.4h-16c-12.2,0-22-9.8-22-22V22c0-19.6,23.7-29.4,37.6-15.6l319.3,319.3c8.6,8.6,8.6,22.5,0,31.1l-11.3,11.3
		c-8.6,8.6-22.5,8.6-31.1,0L149.9,151.3c-13.9-13.9-37.6-4-37.6,15.6v482.5C112.4,661.5,102.5,671.4,90.4,671.4z"/>
	<path d="M682.4,821.4h-8c-12.2,0-22-9.8-22-22V362.2c0-12.2,9.8-22,22-22h16c12.2,0,22,9.8,22,22v371c0,14.2,13.2,24.7,27,21.4
		c46.9-11,91.9-35.2,128.6-69.9c54.4-51.5,84.4-120.2,84.4-193.4S922.4,349.5,868,298c-45.6-43.2-104-70-163.1-75.5
		c-6.5-0.6-12.9,1.7-17.5,6.4L397.9,518.2c-8.6,8.6-22.5,8.6-31.1,0L205.5,356.9c-8.6-8.6-8.6-22.5,0-31.1l11.3-11.3
		c8.6-8.6,22.5-8.6,31.1,0l118.9,118.9c8.6,8.6,22.5,8.6,31.1,0l265.6-265.6c4.1-4.1,9.7-6.4,15.6-6.4h3.3
		c81.8,0,164.4,33.9,226.9,93c66.5,63,103.1,147.1,103.1,237c0,89.8-36.6,174-103.1,237C846.8,787.4,764.1,821.4,682.4,821.4z"/>
	<path fill="none" stroke="#000000" stroke-width="10" stroke-linecap="round" stroke-linejoin="round" stroke-miterlimit="10" d="
		M784.7,692.5c17-9.7,33-21.6,47.5-35.3c46.8-44.3,72.5-103.2,72.5-165.8c0-45.7-13.7-89.4-39.3-126.9"/>
	
		<line fill="none" stroke="#000000" stroke-width="10" stroke-linecap="round" stroke-linejoin="round" stroke-miterlimit="10" x1="5" y1="640.5" x2="5" y2="37.4"/>
	
		<line fill="none" stroke="#000000" stroke-width="10" stroke-linecap="round" stroke-linejoin="round" stroke-miterlimit="10" x1="606.4" y1="792" x2="606.4" y2="377.8"/>
	
		<line fill="none" stroke="#000000" stroke-width="10" stroke-linecap="round" stroke-linejoin="round" stroke-miterlimit="10" x1="459" y1="310.5" x2="612.4" y2="157.2"/>
	
		<line fill="none" stroke="#000000" stroke-width="10" stroke-linecap="round" stroke-linejoin="round" stroke-miterlimit="10" x1="172.5" y1="301.8" x2="195" y2="279.3"/>
</g>
</svg>
