<svg id="Layer_1" data-name="Layer 1" xmlns="http://www.w3.org/2000/svg" xmlns:xlink="http://www.w3.org/1999/xlink" viewBox="0 0 442.37 270.93"><defs><style>.cls-1,.cls-6{fill:none;}.cls-1{clip-rule:evenodd;}.cls-2,.cls-3{fill:#fff;}.cls-3,.cls-4{fill-rule:evenodd;}.cls-4{fill:url(#linear-gradient);}.cls-5{clip-path:url(#clip-path);}.cls-7{fill:#4b4b4b;opacity:0.66;}.cls-8{fill:url(#linear-gradient-2);}</style><linearGradient id="linear-gradient" x1="115.89" y1="115.79" x2="210.09" y2="115.79" gradientUnits="userSpaceOnUse"><stop offset="0.01" stop-color="#fff"/><stop offset="0.19" stop-color="#e8e8e8"/><stop offset="0.54" stop-color="#c3c3c3"/><stop offset="0.82" stop-color="#ababab"/><stop offset="1" stop-color="#a3a3a3"/></linearGradient><clipPath id="clip-path"><path id="_Clipping_Path_" data-name="&lt;Clipping Path&gt;" class="cls-1" d="M165.53,62.85a5.07,5.07,0,0,0-5.07,0l-42,24.25a5.07,5.07,0,0,0-2.54,4.4V140a5.08,5.08,0,0,0,2.54,4.4l42,24.27a5.08,5.08,0,0,0,5.08,0l42-24.27a5.08,5.08,0,0,0,2.54-4.4V91.5a5.07,5.07,0,0,0-2.54-4.4Z"/></clipPath><linearGradient id="linear-gradient-2" x1="115.24" y1="115.72" x2="212.42" y2="115.72" gradientUnits="userSpaceOnUse"><stop offset="0" stop-color="#a3a3a3"/><stop offset="0.18" stop-color="#ababab"/><stop offset="0.46" stop-color="#c3c3c3"/><stop offset="0.81" stop-color="#e8e8e8"/><stop offset="0.99" stop-color="#fff"/></linearGradient></defs><title>Artboard 2</title><path class="cls-2" d="M218.65,270.93a8.37,8.37,0,0,1-4.19-1.12l-13.34-7.89c-2-1.11-1-1.51-.36-1.74a26.6,26.6,0,0,0,6-2.74,1,1,0,0,1,1,.08L218,263.59a1.32,1.32,0,0,0,1.24,0l39.95-23.06a1.26,1.26,0,0,0,.61-1.08v-46.1a1.29,1.29,0,0,0-.62-1.1l-39.93-23a1.25,1.25,0,0,0-1.23,0l-39.92,23a1.28,1.28,0,0,0-.63,1.09v46.1a1.22,1.22,0,0,0,.63,1.07l10.94,6.32c5.94,3,9.57-.53,9.57-4V197.28a1.15,1.15,0,0,1,1.16-1.15h5.07a1.15,1.15,0,0,1,1.16,1.15V242.8c0,7.92-4.32,12.47-11.83,12.47-2.31,0-4.13,0-9.2-2.5l-10.48-6a8.44,8.44,0,0,1-4.19-7.29v-46.1a8.42,8.42,0,0,1,4.19-7.28L214.46,163a8.75,8.75,0,0,1,8.4,0l39.95,23.08a8.43,8.43,0,0,1,4.2,7.28v46.1a8.46,8.46,0,0,1-4.2,7.29l-39.95,23.06A8.38,8.38,0,0,1,218.65,270.93Z"/><path class="cls-2" d="M231,239.16c-17.48,0-21.14-8-21.14-14.76a1.15,1.15,0,0,1,1.15-1.15h5.16a1.16,1.16,0,0,1,1.15,1c.78,5.26,3.1,7.91,13.68,7.91,8.42,0,12-1.9,12-6.37,0-2.57-1-4.48-14.1-5.77-10.93-1.08-17.69-3.5-17.69-12.24,0-8.06,6.79-12.87,18.19-12.87,12.8,0,19.13,4.44,19.93,14a1.16,1.16,0,0,1-1.15,1.26H243a1.15,1.15,0,0,1-1.12-.9c-1.24-5.53-4.27-7.3-12.48-7.3-9.19,0-10.26,3.2-10.26,5.6,0,2.91,1.26,3.75,13.67,5.39s18.11,3.92,18.11,12.55S243.65,239.16,231,239.16Z"/><path class="cls-2" d="M288.59,190.81a7.7,7.7,0,1,1-7.7-7.7A7.72,7.72,0,0,1,288.59,190.81Zm-14.15,0a6.46,6.46,0,1,0,6.44-6.44A6.46,6.46,0,0,0,274.44,190.79Zm3.56-4.3h3c1,0,3,0,3,2.28a2,2,0,0,1-1.63,2.12c1.18.08,1.26.86,1.43,2a8.51,8.51,0,0,0,.45,2.28H282.4c0-.41-.33-2.61-.33-2.73-.12-.49-.29-.73-.9-.73h-1.51v3.46H278Zm1.63,3.79H281a1.16,1.16,0,0,0,1.3-1.22c0-1.18-.82-1.18-1.26-1.18h-1.38Z"/><path class="cls-3" d="M94.94,90.55a5.11,5.11,0,0,0-2.56-4.45L50,61.73a5,5,0,0,0-2.33-.67h-.44a5.06,5.06,0,0,0-2.34.67L2.56,86.1A5.13,5.13,0,0,0,0,90.55l.09,65.64a2.51,2.51,0,0,0,1.28,2.21,2.46,2.46,0,0,0,2.54,0L29.08,144a5.15,5.15,0,0,0,2.56-4.44V108.88a5.1,5.1,0,0,1,2.55-4.43l10.72-6.17a5.09,5.09,0,0,1,2.56-.69,5,5,0,0,1,2.54.69l10.71,6.17a5.1,5.1,0,0,1,2.56,4.43v30.66A5.17,5.17,0,0,0,65.86,144L91,158.39a2.49,2.49,0,0,0,2.56,0,2.56,2.56,0,0,0,1.27-2.21Z"/><path class="cls-3" d="M298.73.32a2.56,2.56,0,0,0-3.81,2.23v65a1.79,1.79,0,0,1-2.69,1.55L281.64,63a5.12,5.12,0,0,0-5.11,0L234.15,87.45a5.11,5.11,0,0,0-2.56,4.43V140.8a5.12,5.12,0,0,0,2.56,4.43l42.37,24.47a5.12,5.12,0,0,0,5.12,0L324,145.23a5.12,5.12,0,0,0,2.56-4.43V18.86a5.12,5.12,0,0,0-2.62-4.47Zm-3.93,124.4a1.28,1.28,0,0,1-.64,1.11l-14.55,8.39a1.28,1.28,0,0,1-1.28,0l-14.55-8.39a1.28,1.28,0,0,1-.64-1.11v-16.8a1.28,1.28,0,0,1,.64-1.11l14.55-8.4a1.28,1.28,0,0,1,1.28,0l14.55,8.4a1.28,1.28,0,0,1,.64,1.11Z"/><path class="cls-3" d="M439.83,107.49a5.12,5.12,0,0,0,2.55-4.42V91.21a5.12,5.12,0,0,0-2.55-4.43l-42.1-24.44a5.12,5.12,0,0,0-5.13,0L350.24,86.79a5.12,5.12,0,0,0-2.56,4.43v48.9a5.11,5.11,0,0,0,2.58,4.45l42.09,24a5.11,5.11,0,0,0,5,0l25.46-14.15a2.56,2.56,0,0,0,0-4.46l-42.63-24.46a2.56,2.56,0,0,1-1.29-2.22V108a2.56,2.56,0,0,1,1.28-2.22L393.5,98.1a2.55,2.55,0,0,1,2.55,0l13.27,7.65a2.56,2.56,0,0,1,1.28,2.22V120a2.56,2.56,0,0,0,3.84,2.21Z"/><path class="cls-3" d="M394.54,105.2a1,1,0,0,1,1,0l8.13,4.69a1,1,0,0,1,.49.85v9.39a1,1,0,0,1-.49.85l-8.13,4.69a1,1,0,0,1-1,0L386.41,121a1,1,0,0,1-.49-.85v-9.39a1,1,0,0,1,.49-.85Z"/><path id="_Path_" data-name="&lt;Path&gt;" class="cls-4" d="M160.45,62.85a5.07,5.07,0,0,1,5.07,0l42,24.25a5.07,5.07,0,0,1,2.54,4.4V140a5.08,5.08,0,0,1-2.54,4.4l-42,24.27a5.08,5.08,0,0,1-5.08,0l-42-24.27a5.08,5.08,0,0,1-2.54-4.4V91.5a5.07,5.07,0,0,1,2.54-4.4Z"/><g class="cls-5"><path class="cls-6" d="M160.4,62.85,118.33,87.11a5.17,5.17,0,0,0-2.64,4.4V140a5,5,0,0,0,1.18,3.18l47.3-80.91A5.12,5.12,0,0,0,160.4,62.85Z"/><path class="cls-6" d="M164.44,169.15a5.1,5.1,0,0,0,1-.43l41.93-24.27a4.9,4.9,0,0,0,2.34-4.4V91.5a5.27,5.27,0,0,0-1.07-3.27Z"/><path class="cls-7" d="M207.34,87.11,165.5,62.85a5.05,5.05,0,0,0-1.33-.53l-47.3,80.91a5.33,5.33,0,0,0,1.43,1.21l42.09,24.27a5,5,0,0,0,4,.43l44.19-80.91A4.45,4.45,0,0,0,207.34,87.11Z"/><path class="cls-6" d="M118.81,86.83l-.48.27a5.17,5.17,0,0,0-2.64,4.4V140a5.15,5.15,0,0,0,2.61,4.4l42.09,24.27a5,5,0,0,0,3.66.54Z"/><path class="cls-6" d="M209.69,91.5a4.91,4.91,0,0,0-2.35-4.4L165.5,62.85a5.05,5.05,0,0,0-1.17-.49l45.36,77.49Z"/><path class="cls-8" d="M165.43,168.72l41.93-24.27a4.9,4.9,0,0,0,2.34-4.4v-.19L164.33,62.37a5.12,5.12,0,0,0-3.93.49l-41.59,24,45.25,82.43A5.08,5.08,0,0,0,165.43,168.72Z"/></g></svg>